<svg width="71" height="71" viewBox="0 0 71 71" fill="none" xmlns="http://www.w3.org/2000/svg">
<g id="Socmed/Instagram">
<g id="Ellipse 178" filter="url(#filter0_d_140_7195)">
<circle cx="35.2301" cy="22.2977" r="16.7999" fill="#173735"/>
</g>
<path id="Vector" d="M35.3545 21.765C35.3545 23.1545 34.8163 24.4871 33.8584 25.4696C32.9005 26.4521 31.6014 27.0041 30.2467 27.0041C28.892 27.0041 27.5928 26.4521 26.6349 25.4696C25.677 24.4871 25.1389 23.1545 25.1389 21.765C25.1389 21.4664 25.1695 21.1747 25.2223 20.8918H23.4363V27.872C23.4363 28.3575 23.8193 28.7504 24.2927 28.7504H36.2024C36.4292 28.75 36.6466 28.6572 36.8069 28.4925C36.9671 28.3278 37.0571 28.1047 37.0571 27.872V20.8918H35.2711C35.3238 21.1747 35.3545 21.4664 35.3545 21.765ZM30.2467 25.2577C30.694 25.2576 31.1369 25.1671 31.5501 24.9914C31.9633 24.8158 32.3387 24.5583 32.6549 24.2338C32.9711 23.9094 33.2219 23.5242 33.3929 23.1003C33.564 22.6764 33.652 22.222 33.6519 21.7633C33.6518 21.3045 33.5636 20.8502 33.3923 20.4264C33.221 20.0026 32.97 19.6175 32.6537 19.2932C32.3373 18.9688 31.9618 18.7116 31.5485 18.5361C31.1352 18.3607 30.6923 18.2704 30.245 18.2705C29.3416 18.2708 28.4754 18.6391 27.8368 19.2944C27.1982 19.9497 26.8395 20.8384 26.8398 21.765C26.84 22.6916 27.1991 23.5801 27.838 24.2351C28.4769 24.8901 29.3433 25.2579 30.2467 25.2577ZM34.3329 18.0977H36.3743C36.51 18.0977 36.6401 18.0425 36.7361 17.9443C36.8322 17.8461 36.8864 17.7129 36.8868 17.5738V15.4799C36.8868 15.3405 36.8328 15.2068 36.7367 15.1082C36.6406 15.0096 36.5103 14.9542 36.3743 14.9542H34.3329C34.197 14.9542 34.0667 15.0096 33.9705 15.1082C33.8744 15.2068 33.8204 15.3405 33.8204 15.4799V17.5738C33.8221 17.8619 34.052 18.0977 34.3329 18.0977ZM30.2467 5C25.9117 5 21.7543 6.76631 18.689 9.91036C15.6237 13.0544 13.9017 17.3186 13.9017 21.765C13.9017 26.2114 15.6237 30.4756 18.689 33.6196C21.7543 36.7637 25.9117 38.53 30.2467 38.53C32.3931 38.53 34.5186 38.0964 36.5016 37.2538C38.4847 36.4113 40.2866 35.1764 41.8043 33.6196C43.3221 32.0629 44.5261 30.2147 45.3475 28.1807C46.1689 26.1467 46.5917 23.9666 46.5917 21.765C46.5917 19.5634 46.1689 17.3833 45.3475 15.3493C44.5261 13.3153 43.3221 11.4671 41.8043 9.91036C40.2866 8.35358 38.4847 7.11868 36.5016 6.27616C34.5186 5.43364 32.3931 5 30.2467 5ZM38.7597 28.5566C38.7597 29.6236 37.9084 30.4968 36.8681 30.4968H23.6252C22.585 30.4968 21.7337 29.6236 21.7337 28.5566V14.9734C21.7337 13.9064 22.585 13.0332 23.6252 13.0332H36.8681C37.9084 13.0332 38.7597 13.9064 38.7597 14.9734V28.5566Z" fill="white"/>
</g>
<defs>
<filter id="filter0_d_140_7195" x="0.430115" y="0.497803" width="69.5999" height="69.5999" filterUnits="userSpaceOnUse" color-interpolation-filters="sRGB">
<feFlood flood-opacity="0" result="BackgroundImageFix"/>
<feColorMatrix in="SourceAlpha" type="matrix" values="0 0 0 0 0 0 0 0 0 0 0 0 0 0 0 0 0 0 127 0" result="hardAlpha"/>
<feOffset dy="13"/>
<feGaussianBlur stdDeviation="9"/>
<feColorMatrix type="matrix" values="0 0 0 0 0.0658854 0 0 0 0 0.0730469 0 0 0 0 0.1375 0 0 0 0.08 0"/>
<feBlend mode="normal" in2="BackgroundImageFix" result="effect1_dropShadow_140_7195"/>
<feBlend mode="normal" in="SourceGraphic" in2="effect1_dropShadow_140_7195" result="shape"/>
</filter>
</defs>
</svg>
