<svg width="70" height="71" viewBox="0 0 70 71" fill="none" xmlns="http://www.w3.org/2000/svg">
<g id="Socmed/Twitter">
<g id="Ellipse 177" filter="url(#filter0_d_140_7192)">
<circle cx="35.1017" cy="22.2977" r="16.7999" fill="#173735"/>
</g>
<path id="Vector" d="M31.57 5C22.5428 5 15.225 12.5058 15.225 21.765C15.225 31.0242 22.5428 38.53 31.57 38.53C40.5972 38.53 47.915 31.0242 47.915 21.765C47.915 12.5058 40.5972 5 31.57 5ZM38.2186 18.7333C38.2255 18.8765 38.2272 19.0197 38.2272 19.1594C38.2272 23.5253 34.9905 28.5566 29.0689 28.5566C27.3191 28.5596 25.6057 28.0441 24.1347 27.0722C24.385 27.1036 24.6421 27.1158 24.9026 27.1158C26.4111 27.1158 27.7987 26.5902 28.9003 25.703C28.229 25.6895 27.5785 25.4615 27.0395 25.0508C26.5006 24.6401 26.0999 24.0671 25.8935 23.4118C26.3756 23.5058 26.8722 23.4861 27.3458 23.3542C26.6172 23.2031 25.9619 22.7981 25.4912 22.208C25.0204 21.6179 24.7631 20.8789 24.763 20.1164V20.0763C25.1971 20.3225 25.6943 20.4727 26.2221 20.4902C25.539 20.0238 25.0554 19.3073 24.8703 18.4873C24.6852 17.6673 24.8124 16.8058 25.2261 16.0789C26.0347 17.0987 27.0432 17.9331 28.1862 18.5278C29.3291 19.1225 30.5811 19.4645 31.8611 19.5314C31.6984 18.8229 31.7684 18.0792 32.0603 17.4157C32.3523 16.7523 32.8497 16.2063 33.4753 15.8628C34.1009 15.5192 34.8197 15.3973 35.5198 15.516C36.22 15.6346 36.8623 15.9872 37.3469 16.519C38.0674 16.3727 38.7583 16.1017 39.39 15.7174C39.1499 16.4825 38.6472 17.1322 37.9752 17.5458C38.6134 17.467 39.2366 17.291 39.8242 17.0237C39.3926 17.6871 38.8488 18.2661 38.2186 18.7333Z" fill="white"/>
</g>
<defs>
<filter id="filter0_d_140_7192" x="0.301758" y="0.497803" width="69.5999" height="69.5999" filterUnits="userSpaceOnUse" color-interpolation-filters="sRGB">
<feFlood flood-opacity="0" result="BackgroundImageFix"/>
<feColorMatrix in="SourceAlpha" type="matrix" values="0 0 0 0 0 0 0 0 0 0 0 0 0 0 0 0 0 0 127 0" result="hardAlpha"/>
<feOffset dy="13"/>
<feGaussianBlur stdDeviation="9"/>
<feColorMatrix type="matrix" values="0 0 0 0 0.0658854 0 0 0 0 0.0730469 0 0 0 0 0.1375 0 0 0 0.08 0"/>
<feBlend mode="normal" in2="BackgroundImageFix" result="effect1_dropShadow_140_7192"/>
<feBlend mode="normal" in="SourceGraphic" in2="effect1_dropShadow_140_7192" result="shape"/>
</filter>
</defs>
</svg>
